<svg xmlns="http://www.w3.org/2000/svg"  viewBox="0 0 48 48" width="48px" height="48px"><path fill="#1876d2" d="M24,4C13,4,4,13,4,24s9,20,20,20s20-9,20-20S35,4,24,4z"/><path fill="#fff" d="M25.8,33.3h-2.3c-7.4-0.2-12.6-7.2-12.6-16.5h4.5c0,6.8,3.5,11.8,8.2,12l2.2,0V33.3z"/><path fill="#fff" d="M21.3,16.8V33c0.7,0.2,1.5,0.3,2.3,0.3h2.3V16.8H21.3z"/><path fill="#fff" d="M37,33.2h-4.5c0-0.5-0.9-2.3-2.6-3.6c-2.5-1.9-5.2-1.9-6.9-1.9h-0.7v-4.5H23c1.9,0,6,0,9.7,2.9 C34.9,27.7,37,30.6,37,33.2z"/><path fill="#fff" d="M23,27.7h-0.7v-4.5H23c1.5,0,4,0,6.2-2c1.5-1.5,2.5-3.6,2.5-4.4h4.5c0,2.6-2,5.7-3.9,7.6 C28.8,27.7,24.9,27.7,23,27.7z"/></svg>