<svg width="24" height="24" viewBox="0 0 24 24" xmlns="http://www.w3.org/2000/svg">
<path d="M3.7998 19.4H6.2998C7.5998 19.4 8.7998 18.9 9.6998 18L19.9998 7.7C21.4998 6.2 21.4998 3.7 19.9998 2.2C19.2998 1.4 18.2998 1 17.2998 1C16.2998 1 15.2998 1.4 14.4998 2.1L4.1998 12.5C3.2998 13.4 2.7998 14.7 2.7998 16V18.5C2.7998 19 3.2998 19.4 3.7998 19.4ZM4.7998 15.9C4.7998 15.1 5.0998 14.4 5.5998 13.9L13.7998 5.7L15.1998 7C15.3998 7.2 15.6998 7.3 15.8998 7.3C16.1998 7.3 16.3998 7.2 16.5998 7C16.9998 6.6 16.9998 6 16.5998 5.6L15.1998 4.2L15.8998 3.5C16.2998 3.2 16.7998 3 17.2998 3C17.7998 3 18.2998 3.2 18.5998 3.6C19.2998 4.3 19.2998 5.6 18.5998 6.3L8.2998 16.6C7.7998 17.1 6.9998 17.4 6.2998 17.4H4.7998V15.9Z"/>
<path d="M22 21H2C1.4 21 1 21.4 1 22C1 22.6 1.4 23 2 23H22C22.6 23 23 22.6 23 22C23 21.4 22.6 21 22 21Z" />
</svg>
