<svg width="24" height="24" viewBox="0 0 24 24" fill="currentColor" xmlns="http://www.w3.org/2000/svg">
<path d="M17.6219 2.3999H6.27861C3.89055 2.3999 2 4.2999 2 6.6999V18.1999C2 20.4999 3.89055 22.3999 6.27861 22.3999H17.7214C20.1095 22.3999 22 20.4999 22 18.0999V6.6999C21.9005 4.2999 20.01 2.3999 17.6219 2.3999ZM6.27861 4.3999H17.7214C18.9154 4.3999 19.9104 5.3999 19.9104 6.6999V8.1999H3.99005V6.6999C3.99005 5.3999 4.98507 4.3999 6.27861 4.3999ZM17.6219 20.3999H6.27861C4.98507 20.3999 3.99005 19.3999 3.99005 18.0999V10.0999H19.9104V18.0999C19.9104 19.3999 18.9154 20.3999 17.6219 20.3999Z" />
<path d="M17.6998 12.2002H6.2998C5.6998 12.2002 5.2998 12.6002 5.2998 13.2002C5.2998 13.8002 5.6998 14.2002 6.2998 14.2002H17.7998C18.3998 14.2002 18.7998 13.8002 18.7998 13.2002C18.6998 12.7002 18.2998 12.2002 17.6998 12.2002Z"/>
<path d="M17.6998 16.2998H6.2998C5.6998 16.2998 5.2998 16.6998 5.2998 17.2998C5.2998 17.8998 5.6998 18.2998 6.2998 18.2998H17.7998C18.3998 18.2998 18.7998 17.8998 18.7998 17.2998C18.7998 16.6998 18.2998 16.2998 17.6998 16.2998Z"/>
</svg>
