<?xml version="1.0" encoding="utf-8"?>
<!-- Generator: Adobe Illustrator 26.0.1, SVG Export Plug-In . SVG Version: 6.00 Build 0)  -->
<svg version="1.1" id="Слой_1" xmlns="http://www.w3.org/2000/svg" xmlns:xlink="http://www.w3.org/1999/xlink" x="0px" y="0px"
	 viewBox="0 0 10 10" style="enable-background:new 0 0 10 10;" xml:space="preserve">
<style type="text/css">
	.st0{fill:url(#SVGID_1_);}
	.st1{fill:url(#SVGID_00000037683140302903833830000008668881500865929895_);}
</style>
<linearGradient id="SVGID_1_" gradientUnits="userSpaceOnUse" x1="1.5" y1="6.505" x2="7.86" y2="6.505">
	<stop  offset="0" style="stop-color:#5D5EA7"/>
	<stop  offset="0.5" style="stop-color:#9A549C"/>
	<stop  offset="1" style="stop-color:#E94284"/>
</linearGradient>
<path class="st0" d="M7.9,9.1C7.6,9.3,7.3,9.5,7,9.6C6.5,9.8,6,9.9,5.4,10c-0.1,0-0.2,0-0.4,0s-0.2,0-0.4,0C2.9,9.8,1.5,8.3,1.5,6.5
	C1.5,4.6,3,3.1,4.8,3C3.8,3.1,3,4,3,5c0,1.1,0.9,2,2,2s2-0.9,2-2v2c0,0.7,0.2,1.3,0.6,1.8C7.7,8.9,7.8,9,7.9,9.1z"/>
<linearGradient id="SVGID_00000045584564202932256140000008845968620571421076_" gradientUnits="userSpaceOnUse" x1="0" y1="5" x2="10" y2="5">
	<stop  offset="0" style="stop-color:#64C6EB"/>
	<stop  offset="0.5" style="stop-color:#66A4D8"/>
	<stop  offset="1" style="stop-color:#5C75B8"/>
</linearGradient>
<path style="fill:url(#SVGID_00000045584564202932256140000008845968620571421076_);" d="M10,5v5c-0.8,0-1.6-0.3-2.1-0.9
	c0,0,0,0,0,0C7.8,9,7.7,8.9,7.6,8.8C7.2,8.3,7,7.7,7,7V5c0-1-0.8-1.9-1.8-2C5.1,3,5.1,3,5,3S4.9,3,4.8,3C3,3.1,1.5,4.6,1.5,6.5
	c0,1.8,1.4,3.3,3.1,3.5C2,9.8,0,7.6,0,5c0-2.8,2.2-5,5-5c0.7,0,1.4,0.1,2,0.4C8.8,1.2,10,3,10,5z"/>
</svg>
