<svg width="24" height="24" viewBox="0 0 24 24" fill="currentColor" xmlns="http://www.w3.org/2000/svg">
<path fill-rule="evenodd" clip-rule="evenodd" d="M1 5.78146C1 3.646 2.62571 2 4.76316 2H14.2368C16.3973 2 18 3.76883 18 5.78146V11.7417C18 13.9004 16.2523 15.5232 14.2368 15.5232H8.01974C7.37166 15.5232 6.78381 15.7363 6.23901 16.127L2.59201 18.8059C2.28819 19.0291 1.88468 19.0625 1.54834 18.8922C1.212 18.7219 1 18.377 1 18V5.78146ZM3 16.0246L5.06751 14.5059C5.90319 13.9051 6.89305 13.5232 8.01974 13.5232H14.2368C15.182 13.5232 16 12.7619 16 11.7417V5.78146C16 4.81395 15.2342 4 14.2368 4H4.76316C3.74271 4 3 4.7381 3 5.78146V16.0246Z" />
<path fill-rule="evenodd" clip-rule="evenodd" d="M19.5307 8.62067C19.7401 8.10962 20.3241 7.86505 20.8352 8.07442C22.0952 8.59065 23.0002 9.78393 23.0002 11.1823V21.9998C23.0002 22.3666 22.7994 22.7039 22.477 22.8788C22.1545 23.0537 21.7623 23.038 21.4548 22.838L17.9548 20.5606C17.933 20.5464 17.9117 20.5313 17.891 20.5154C17.507 20.2205 16.9268 20.0582 16.2355 20.0582H10.3678C8.9812 20.0582 7.68927 19.2924 7.09947 18.0691C6.8596 17.5717 7.06845 16.9739 7.56593 16.7341C8.0634 16.4942 8.66114 16.703 8.901 17.2005C9.13472 17.6853 9.69573 18.0582 10.3678 18.0582H16.2355C17.1787 18.0582 18.2301 18.2698 19.0757 18.9038L21.0002 20.1561V11.1823C21.0002 10.6828 20.6699 10.168 20.077 9.92513C19.5659 9.71576 19.3214 9.13173 19.5307 8.62067Z" />
</svg>
