<svg width="24" height="24" viewBox="0 0 24 24" fill="currentColor" xmlns="http://www.w3.org/2000/svg">
<path d="M15.7996 7.59976C15.3996 7.19976 14.6996 7.29976 14.3996 7.69976C13.9996 8.09976 14.0996 8.79976 14.4996 9.09976C15.3996 9.79976 15.8996 10.8998 15.8996 12.0998C15.8996 14.1998 14.1996 15.9998 11.9996 15.9998C9.79961 15.9998 8.09961 14.1998 8.09961 11.9998C8.09961 10.8998 8.59961 9.79976 9.49961 8.99976C9.89961 8.59976 9.9996 7.99976 9.59961 7.59976C9.19961 7.19976 8.59961 7.09976 8.19961 7.49976C6.89961 8.69976 6.09961 10.2998 6.09961 11.9998C6.09961 15.1998 8.69961 17.8998 11.9996 17.8998C15.1996 17.8998 17.8996 15.2998 17.8996 11.9998C17.8996 10.2998 17.0996 8.69976 15.7996 7.59976Z" />
<path d="M12 2C6.5 2 2 6.5 2 12C2 17.5 6.5 22 12 22C17.5 22 22 17.5 22 12C22 6.5 17.5 2 12 2ZM12 20C7.6 20 4 16.4 4 12C4 7.6 7.6 4 12 4C16.4 4 20 7.6 20 12C20 16.4 16.4 20 12 20Z"/>
<path d="M12 11.1C12.6 11.1 13 10.7 13 10.1V6.5C13 5.9 12.6 5.5 12 5.5C11.4 5.5 11 5.9 11 6.5V10.2C11 10.7 11.4 11.1 12 11.1Z" />
</svg>
