<svg width="24" height="24" viewBox="0 0 24 24" fill="currentColor" xmlns="http://www.w3.org/2000/svg">
<path d="M6.7995 19.0758H3.4995C3.2995 19.0758 3.1995 18.9758 3.0995 18.8758C2.9995 18.7758 2.8995 18.5758 2.9995 18.3758C3.5995 16.6758 5.0995 15.6758 6.7995 15.6758C8.8995 15.6758 10.5995 13.8758 10.5995 11.7758C10.5995 9.67578 8.8995 7.67578 6.7995 7.67578C4.6995 7.67578 2.9995 9.47578 2.9995 11.6758C2.9995 12.6758 3.3995 13.6758 3.9995 14.3758C2.6995 15.0758 1.6995 16.1758 1.0995 17.6758C0.899505 18.3758 0.999505 19.2758 1.4995 19.9758C1.9995 20.6758 2.6995 21.0758 3.4995 21.0758H6.7995C7.3995 21.0758 7.7995 20.6758 7.7995 20.0758C7.7995 19.4758 7.3995 19.0758 6.7995 19.0758ZM4.9995 11.6758C4.9995 10.5758 5.7995 9.77578 6.7995 9.77578C7.7995 9.77578 8.5995 10.6758 8.5995 11.6758C8.5995 12.7758 7.7995 13.5758 6.7995 13.5758C5.7995 13.5758 4.9995 12.6758 4.9995 11.6758Z" />
<path d="M22.8996 17.076C22.1996 15.176 20.7996 13.776 19.1996 12.976C20.0996 12.176 20.5996 10.976 20.5996 9.57598C20.5996 6.97598 18.5996 4.87598 16.1996 4.87598C13.7996 4.87598 11.7996 6.97598 11.7996 9.57598C11.7996 10.876 12.2996 12.076 13.1996 12.976C11.5996 13.776 10.1996 15.176 9.49958 17.076C8.99958 17.976 9.19958 18.976 9.69958 19.776C10.1996 20.576 11.0996 20.976 11.9996 20.976H20.2996C21.1996 20.976 22.0996 20.476 22.5996 19.776C23.1996 18.976 23.2996 17.976 22.8996 17.076ZM13.6996 9.67598C13.6996 8.17598 14.7996 6.97598 16.0996 6.97598C17.3996 6.97598 18.4996 8.17598 18.4996 9.67598C18.4996 11.176 17.3996 12.376 16.0996 12.376C14.7996 12.376 13.6996 11.076 13.6996 9.67598ZM20.8996 18.676C20.7996 18.776 20.5996 19.076 20.2996 19.076H11.9996C11.5996 19.076 11.3996 18.776 11.3996 18.676C11.2996 18.576 11.0996 18.176 11.2996 17.776C12.0996 15.676 14.0996 14.276 16.1996 14.276C18.2996 14.276 20.2996 15.676 21.0996 17.776C21.1996 18.176 20.9996 18.576 20.8996 18.676Z" />
</svg>
